<svg width="21" height="20" viewBox="0 0 21 20" fill="none" xmlns="http://www.w3.org/2000/svg">
<path id="Vector" d="M20.3468 15.3792L20.3793 15.5513C20.3692 15.6942 20.3156 15.82 20.2295 15.9172C20.1062 16.0566 19.9102 16.1439 19.6707 16.1438C19.4294 16.1436 19.1704 16.0533 18.9565 15.884C18.7426 15.7146 18.6028 15.4893 18.5601 15.2645L18.5601 15.2644L16.466 4.28275L16.3698 3.778L16.0177 4.17236L3.08466 18.6569C2.96077 18.7956 2.76437 18.8823 2.52477 18.8813C2.28336 18.8803 2.02464 18.7892 1.81138 18.6194C1.59813 18.4496 1.45935 18.2242 1.41754 17.9997C1.37604 17.7769 1.43333 17.5794 1.55722 17.4407L14.4902 2.95618L14.8424 2.56182L14.2993 2.55752L2.48349 2.46387L2.46361 2.46371L2.44391 2.46645C2.32206 2.48339 2.18866 2.47564 2.05286 2.44061C1.91706 2.40558 1.78396 2.34455 1.6636 2.26075C1.54324 2.17696 1.44012 2.07354 1.3612 1.9583C1.28226 1.84303 1.23049 1.7203 1.20706 1.59947C1.18366 1.47877 1.18924 1.36398 1.21938 1.2621C1.24941 1.16058 1.30356 1.07241 1.37722 1.00164C1.45095 0.930791 1.54539 0.876282 1.65672 0.843728C1.7684 0.811075 1.89527 0.801136 2.02944 0.818177L2.04553 0.820222L2.06179 0.820327L17.614 0.921058L20.3468 15.3792Z" fill="black" stroke="#030100" stroke-width="0.5"/>
</svg>
