<svg width="50" height="50" viewBox="0 0 50 50" fill="none" xmlns="http://www.w3.org/2000/svg">
<g id="eva:behance-fill">
<path id="Vector" d="M30.2447 23.3127C29.9594 23.3115 29.677 23.3709 29.4155 23.4871C29.1541 23.6034 28.9194 23.7738 28.7265 23.9876C28.5336 24.2014 28.3867 24.4537 28.2953 24.7285C28.2039 25.0034 28.17 25.2946 28.1956 25.5835H32.4168C32.4441 25.2837 32.4071 24.9815 32.3085 24.6977C32.2098 24.4138 32.0518 24.1551 31.8454 23.9392C31.639 23.7234 31.389 23.5557 31.1127 23.4475C30.8363 23.3393 30.5402 23.2933 30.2447 23.3127ZM19.4459 25.6252H16.9255V29.6668H18.9746C21.0238 29.6668 21.9254 28.9793 21.9254 27.5835C21.9254 26.1877 20.9828 25.6252 19.4459 25.6252ZM21.2287 21.9168C21.2287 20.8127 20.5115 20.146 19.282 20.146H16.9255V23.771H18.6673C20.491 23.771 21.2287 23.1043 21.2287 21.9168Z" fill="black"/>
<path id="Vector_2" d="M24.5892 4.1665C20.5365 4.1665 16.5747 5.38836 13.205 7.67755C9.83526 9.96675 7.20887 13.2205 5.65795 17.0273C4.10702 20.8341 3.70123 25.0229 4.49188 29.0642C5.28254 33.1055 7.23412 36.8176 10.0999 39.7312C12.9656 42.6448 16.6167 44.629 20.5916 45.4329C24.5665 46.2367 28.6866 45.8242 32.4308 44.2473C36.1751 42.6705 39.3754 40.0002 41.627 36.5742C43.8785 33.1482 45.0803 29.1203 45.0803 24.9998C45.0803 22.264 44.5503 19.5549 43.5205 17.0273C42.4908 14.4996 40.9814 12.203 39.0786 10.2684C37.1759 8.33389 34.9169 6.79932 32.4308 5.75235C29.9448 4.70537 27.2802 4.1665 24.5892 4.1665ZM19.8763 31.6665H14.3437V18.1248H19.8763C22.2738 18.1248 23.8516 19.3957 23.8516 21.4582C23.8798 22.1511 23.6644 22.8315 23.2438 23.3775C22.8232 23.9235 22.225 24.2992 21.5566 24.4373C21.9802 24.4473 22.3973 24.5451 22.7825 24.7246C23.1677 24.9042 23.5128 25.1618 23.7967 25.4816C24.0806 25.8014 24.2973 26.1768 24.4336 26.5847C24.5698 26.9926 24.6228 27.4245 24.5892 27.854C24.5892 30.2707 22.5401 31.6665 19.8763 31.6665ZM27.1506 19.1665H33.298V20.2082H27.1506V19.1665ZM34.8348 27.1873H28.0727V27.479C28.0375 27.7956 28.0694 28.1162 28.1663 28.4191C28.2632 28.7221 28.4229 29.0004 28.6346 29.2354C28.8462 29.4703 29.1049 29.6564 29.3933 29.7811C29.6817 29.9058 29.993 29.9661 30.3063 29.9582C30.7461 30.0276 31.1958 29.933 31.5724 29.6918C31.949 29.4506 32.2271 29.079 32.3554 28.6457H34.8348C34.614 29.6457 34.0384 30.528 33.2181 31.1237C32.3978 31.7194 31.3903 31.9868 30.3882 31.8748C29.7478 31.9406 29.101 31.8629 28.4932 31.6471C27.8855 31.4314 27.3317 31.0829 26.8707 30.6261C26.4097 30.1693 26.0528 29.6154 25.825 29.0033C25.5972 28.3912 25.5042 27.7358 25.5523 27.0832V26.1665C25.5088 25.5341 25.6003 24.8997 25.8206 24.3067C26.0409 23.7137 26.3847 23.1761 26.8285 22.7308C27.2722 22.2856 27.8055 21.9432 28.3916 21.7271C28.9778 21.511 29.603 21.4264 30.2243 21.479C30.8436 21.4386 31.4642 21.5336 32.0443 21.7576C32.6245 21.9816 33.1507 22.3293 33.5875 22.7774C34.0244 23.2255 34.3617 23.7636 34.5769 24.3554C34.792 24.9471 34.88 25.5789 34.8348 26.2082V27.1873Z" fill="black"/>
</g>
</svg>
