<svg width="21" height="21" viewBox="0 0 21 21" fill="none" xmlns="http://www.w3.org/2000/svg">
<path id="Icon" d="M10.2209 0C10.9265 0 11.4985 0.572006 11.4985 1.27761V8.94329H19.1642C19.8698 8.94329 20.4418 9.5153 20.4418 10.2209C20.4418 10.9265 19.8698 11.4985 19.1642 11.4985H11.4985V19.1642C11.4985 19.8698 10.9265 20.4418 10.2209 20.4418C9.51529 20.4418 8.94328 19.8698 8.94328 19.1642V11.4985H1.27761C0.572006 11.4985 0 10.9265 0 10.2209C0 9.5153 0.572006 8.94329 1.27761 8.94329H8.94328V1.27761C8.94328 0.572006 9.51529 0 10.2209 0Z" fill="#CEA582"/>
</svg>
