<svg width="40" height="40" viewBox="0 0 40 40" fill="none" xmlns="http://www.w3.org/2000/svg">
<g id="ic:outline-tiktok">
<path id="Vector" d="M27.6664 9.7C26.5274 8.39921 25.8996 6.729 25.8998 5H20.7498V25.6667C20.7109 26.7853 20.239 27.8451 19.4336 28.6225C18.6283 29.3999 17.5524 29.834 16.4331 29.8333C14.0664 29.8333 12.0998 27.9 12.0998 25.5C12.0998 22.6333 14.8664 20.4833 17.7164 21.3667V16.1C11.9664 15.3333 6.93311 19.8 6.93311 25.5C6.93311 31.05 11.5331 35 16.4164 35C21.6498 35 25.8998 30.75 25.8998 25.5V15.0167C27.9881 16.5164 30.4954 17.3211 33.0664 17.3167V12.1667C33.0664 12.1667 29.9331 12.3167 27.6664 9.7Z" fill="black"/>
</g>
</svg>
