<svg width="40" height="40" viewBox="0 0 40 40" fill="none" xmlns="http://www.w3.org/2000/svg">
<g id="lets-icons:insta">
<g id="Group">
<path id="Vector" d="M5 18.3333C5 12.0483 5 8.905 6.95333 6.95333C8.90667 5.00167 12.0483 5 18.3333 5H21.6667C27.9517 5 31.095 5 33.0467 6.95333C34.9983 8.90667 35 12.0483 35 18.3333V21.6667C35 27.9517 35 31.095 33.0467 33.0467C31.0933 34.9983 27.9517 35 21.6667 35H18.3333C12.0483 35 8.905 35 6.95333 33.0467C5.00167 31.0933 5 27.9517 5 21.6667V18.3333Z" stroke="black" stroke-width="2"/>
<path id="Vector_2" d="M27.5 15C28.8807 15 30 13.8807 30 12.5C30 11.1193 28.8807 10 27.5 10C26.1193 10 25 11.1193 25 12.5C25 13.8807 26.1193 15 27.5 15Z" fill="black"/>
<path id="Vector_3" d="M20 25C22.7614 25 25 22.7614 25 20C25 17.2386 22.7614 15 20 15C17.2386 15 15 17.2386 15 20C15 22.7614 17.2386 25 20 25Z" stroke="black" stroke-width="2"/>
</g>
</g>
</svg>
