<svg width="40" height="40" viewBox="0 0 40 40" fill="none" xmlns="http://www.w3.org/2000/svg">
<g id="mage:behance">
<path id="Vector" d="M12.2568 18.5118V15.8368C12.2568 15.6785 12.2568 15.6151 12.4635 15.6151C14.2352 15.6151 15.6752 15.5101 16.3902 15.9318C17.1068 16.3518 17.1368 16.9318 17.1485 17.1051C17.1602 17.2785 17.1552 17.5268 16.8218 18.1318C16.4885 18.7368 14.9968 18.7485 13.9202 18.7485H12.4952C12.3202 18.7485 12.2568 18.6851 12.2568 18.5118ZM17.1668 21.3151C17.3319 21.5258 17.4497 21.7696 17.5123 22.0298C17.5749 22.2901 17.5808 22.5607 17.5296 22.8235C17.4784 23.0862 17.3712 23.3348 17.2155 23.5525C17.0597 23.7702 16.859 23.9518 16.6268 24.0851C16.2859 24.2286 15.9201 24.3039 15.5502 24.3068H12.4785C12.3202 24.3068 12.2568 24.3068 12.2568 24.1018V20.9351C12.2568 20.7768 12.2568 20.7135 12.4635 20.7135H14.5052C15.7718 20.7135 16.5635 20.6035 17.1668 21.3151Z" fill="black"/>
<path id="Vector_2" d="M28.3148 19.8482C28.2299 19.6479 28.101 19.4694 27.9377 19.3257C27.7745 19.182 27.5809 19.0769 27.3715 19.0182C26.9529 18.9038 26.5148 18.8796 26.0861 18.9471C25.6575 19.0146 25.248 19.1723 24.8848 19.4098C24.5229 19.7755 24.289 20.2485 24.2182 20.7582C24.2182 20.9365 24.2182 20.9698 24.4298 20.9698H28.3798C28.5748 20.9698 28.5748 20.9698 28.5582 20.7248C28.5395 20.4186 28.4577 20.1197 28.3148 19.8482ZM28.3148 19.8482C28.2299 19.6479 28.0994 19.4694 27.9361 19.3257C27.7728 19.182 27.5809 19.0769 27.3715 19.0182C26.9529 18.9038 26.5148 18.8796 26.0861 18.9471C25.6575 19.0146 25.248 19.1723 24.8848 19.4098C24.5229 19.7755 24.2874 20.2485 24.2165 20.7582C24.2165 20.9365 24.2165 20.9698 24.4282 20.9698H28.3798C28.5748 20.9698 28.5748 20.9698 28.5582 20.7248C28.5395 20.4186 28.4543 20.1197 28.3115 19.8482M30.1665 4.1665H10.6665C8.9426 4.1665 7.2893 4.85132 6.07031 6.07031C4.85132 7.2893 4.1665 8.9426 4.1665 10.6665V30.1665C4.1665 31.8904 4.85132 33.5437 6.07031 34.7627C7.2893 35.9817 8.9426 36.6665 10.6665 36.6665H30.1665C31.8904 36.6665 33.5437 35.9817 34.7627 34.7627C35.9817 33.5437 36.6665 31.8904 36.6665 30.1665V10.6665C36.6665 8.9426 35.9817 7.2893 34.7627 6.07031C33.5437 4.85132 31.8904 4.1665 30.1665 4.1665ZM23.7965 14.5165C23.7965 14.3882 23.7965 14.3382 23.9432 14.3382H29.2082V15.7048C29.2082 15.7048 29.2132 15.8015 29.1265 15.8015H24.0248C23.7965 15.8015 23.7965 15.8015 23.7965 15.5748V14.5165ZM18.9215 26.4615C16.9215 27.5498 13.5598 27.1115 9.57817 27.1115V13.6398H15.9315C17.5565 13.6398 19.4898 14.0465 20.0098 15.7682C20.2799 16.5201 20.2634 17.3452 19.9637 18.0858C19.6639 18.8264 19.1019 19.4307 18.3848 19.7832C19.0458 20.0277 19.6228 20.4566 20.0476 21.0188C20.4724 21.5811 20.7273 22.2533 20.782 22.9559C20.8367 23.6585 20.689 24.3621 20.3563 24.9834C20.0236 25.6046 19.5199 26.1176 18.9048 26.4615H18.9215ZM31.0282 22.6265H24.5282C24.3498 22.6265 24.1865 22.7232 24.2182 22.9515C24.4132 23.9098 24.8515 24.9182 25.8448 25.0648C26.3693 25.2209 26.931 25.1969 27.4403 24.9967C27.9496 24.7964 28.3771 24.4314 28.6548 23.9598C28.6548 23.9598 28.7365 23.8615 28.7848 23.8615H30.8982C30.8982 23.8615 31.0282 23.8615 30.9948 23.9748C30.772 24.6059 30.4422 25.194 30.0198 25.7132C29.455 26.2527 28.7735 26.6548 28.0281 26.8883C27.2827 27.1217 26.4935 27.1803 25.7218 27.0594C24.9501 26.9385 24.2167 26.6414 23.5784 26.1911C22.9402 25.7409 22.4143 25.1496 22.0415 24.4632C21.8122 24.0054 21.6693 23.5094 21.6198 22.9998C21.33 21.7192 21.5515 20.3759 22.2373 19.2562C22.9231 18.1364 24.019 17.3286 25.2915 17.0048C28.9798 16.2082 31.3198 18.7432 31.3198 22.3182C31.3253 22.36 31.3211 22.4024 31.3075 22.4423C31.294 22.4822 31.2714 22.5185 31.2416 22.5483C31.2118 22.5781 31.1756 22.6006 31.1357 22.6142C31.0958 22.6278 31.0533 22.632 31.0115 22.6265H31.0282ZM27.3882 19.0182C26.9699 18.9022 26.5315 18.8783 26.1032 18.9482C25.6748 19.0148 25.2915 19.0965 24.9015 19.4098C24.5115 19.7215 24.3048 20.2482 24.2348 20.7582C24.2348 20.9365 24.2348 20.9698 24.4465 20.9698H28.3798C28.5748 20.9698 28.5748 20.9698 28.5582 20.7248C28.5395 20.4186 28.4577 20.1197 28.3148 19.8482C28.2299 19.6479 28.101 19.4694 27.9377 19.3257C27.7745 19.182 27.5809 19.0769 27.3715 19.0182H27.3882Z" fill="black"/>
</g>
</svg>
