<svg width="50" height="50" viewBox="0 0 50 50" fill="none" xmlns="http://www.w3.org/2000/svg">
<g id="mdi:github">
<path id="Vector" d="M25.0001 4.1665C22.2642 4.1665 19.5551 4.70537 17.0275 5.75235C14.4999 6.79932 12.2032 8.33389 10.2687 10.2684C6.36168 14.1755 4.16675 19.4745 4.16675 24.9998C4.16675 34.2082 10.1459 42.0207 18.4167 44.7915C19.4584 44.9582 19.7917 44.3123 19.7917 43.7498V40.229C14.0209 41.479 12.7917 37.4373 12.7917 37.4373C11.8334 35.0207 10.4792 34.3748 10.4792 34.3748C8.58342 33.0832 10.6251 33.1248 10.6251 33.1248C12.7084 33.2707 13.8126 35.2707 13.8126 35.2707C15.6251 38.4373 18.6876 37.4998 19.8751 36.9998C20.0626 35.6457 20.6042 34.729 21.1876 34.2082C16.5626 33.6873 11.7084 31.8957 11.7084 23.9582C11.7084 21.6457 12.5001 19.7915 13.8542 18.3123C13.6459 17.7915 12.9167 15.6248 14.0626 12.8123C14.0626 12.8123 15.8126 12.2498 19.7917 14.9373C21.4376 14.479 23.2292 14.2498 25.0001 14.2498C26.7709 14.2498 28.5626 14.479 30.2084 14.9373C34.1876 12.2498 35.9376 12.8123 35.9376 12.8123C37.0834 15.6248 36.3542 17.7915 36.1459 18.3123C37.5001 19.7915 38.2917 21.6457 38.2917 23.9582C38.2917 31.9165 33.4167 33.6665 28.7709 34.1873C29.5209 34.8332 30.2084 36.104 30.2084 38.0415V43.7498C30.2084 44.3123 30.5417 44.979 31.6042 44.7915C39.8751 41.9998 45.8334 34.2082 45.8334 24.9998C45.8334 22.264 45.2945 19.5549 44.2476 17.0273C43.2006 14.4996 41.666 12.203 39.7315 10.2684C37.7969 8.33389 35.5003 6.79932 32.9727 5.75235C30.445 4.70537 27.736 4.1665 25.0001 4.1665Z" fill="black"/>
</g>
</svg>
