<svg width="40" height="40" viewBox="0 0 40 40" fill="none" xmlns="http://www.w3.org/2000/svg">
<g id="carbon:iot-platform">
<path id="Vector" d="M37.5018 23.75H32.5018V18.75H30.0018V30H10.0018V10H21.2518V7.5H16.2518V2.5H13.7518V7.5H10.0018C9.33879 7.5 8.7029 7.76339 8.23406 8.23223C7.76522 8.70107 7.50183 9.33696 7.50183 10V13.75H2.50183V16.25H7.50183V23.75H2.50183V26.25H7.50183V30C7.50183 30.663 7.76522 31.2989 8.23406 31.7678C8.7029 32.2366 9.33879 32.5 10.0018 32.5H13.7518V37.5H16.2518V32.5H23.7518V37.5H26.2518V32.5H30.0018C30.6646 32.499 31.2999 32.2353 31.7685 31.7667C32.2371 31.298 32.5008 30.6627 32.5018 30V26.25H37.5018V23.75Z" fill="#F27507"/>
<path id="Vector_2" d="M26.2518 26.25H13.7518V13.75H26.2518V26.25ZM16.2518 23.75H23.7518V16.25H16.2518V23.75ZM38.7518 16.25H36.2518C36.2485 12.9358 34.9305 9.75831 32.587 7.41482C30.2435 5.07133 27.066 3.75331 23.7518 3.75V1.25C27.7288 1.2543 31.5416 2.83604 34.3537 5.64815C37.1658 8.46026 38.7475 12.2731 38.7518 16.25Z" fill="#F27507"/>
<path id="Vector_3" d="M32.5018 16.25H30.0018C29.9998 14.593 29.3407 13.0044 28.1691 11.8328C26.9974 10.6611 25.4088 10.002 23.7518 10V7.5C26.0715 7.50331 28.2951 8.42624 29.9354 10.0665C31.5756 11.7067 32.4985 13.9304 32.5018 16.25Z" fill="#F27507"/>
</g>
</svg>
