<svg width="35" height="35" viewBox="0 0 35 35" fill="none" xmlns="http://www.w3.org/2000/svg">
<g id="mingcute:pdf-line">
<g id="Group">
<path id="Vector" fill-rule="evenodd" clip-rule="evenodd" d="M19.8129 2.9165C20.4977 2.91667 21.1605 3.15776 21.6854 3.59755L21.875 3.77109L28.3121 10.2082C28.7963 10.6924 29.0947 11.3315 29.155 12.0136L29.1667 12.2703V29.1665C29.1669 29.9023 28.889 30.6111 28.3886 31.1506C27.8883 31.6902 27.2025 32.0207 26.4687 32.0759L26.25 32.0832H8.75C8.01416 32.0834 7.30542 31.8055 6.76587 31.3052C6.22631 30.8048 5.89581 30.119 5.84062 29.3853L5.83333 29.1665V5.83317C5.8331 5.09733 6.11101 4.38859 6.61135 3.84904C7.11169 3.30948 7.79748 2.97898 8.53125 2.9238L8.75 2.9165H19.8129ZM17.5 5.83317H8.75V29.1665H26.25V14.5832H19.6875C19.1437 14.5831 18.6194 14.3806 18.2169 14.015C17.8143 13.6494 17.5624 13.1469 17.5102 12.6057L17.5 12.3957V5.83317ZM18.9408 17.2782C19.2899 19.4993 20.4515 21.5116 22.2002 22.9248C23.4937 23.9705 22.311 26.018 20.7594 25.4215C18.6615 24.6137 16.3385 24.6137 14.2406 25.4215C12.6875 26.0194 11.5048 23.9705 12.7983 22.9248C14.5471 21.5116 15.7086 19.4993 16.0577 17.2782C16.3173 15.6346 18.6827 15.6361 18.9408 17.2782ZM17.4971 20.6382L16.4937 22.3823H18.5062L17.4971 20.6382ZM20.4167 6.43692V11.6665H25.6462L20.4167 6.43692Z" fill="#030100"/>
</g>
</g>
</svg>
