<svg width="40" height="41" viewBox="0 0 40 41" fill="none" xmlns="http://www.w3.org/2000/svg">
<g id="game-icons:skills">
<path id="Vector" d="M9.3064 2.56445V2.57227C7.35327 2.82227 5.62671 5.07227 5.62671 7.94727C5.62671 9.54102 6.1814 10.9473 6.9939 11.9238L7.79077 12.877L6.56421 13.1035C5.4939 13.3066 4.70483 13.877 4.04858 14.7832C3.38452 15.6816 2.88452 16.9316 2.53296 18.3613C1.89233 20.9863 1.75952 24.1973 1.7439 26.9941H5.1814L6.11108 39.3691H13.6345L14.4548 26.9941H17.7283C17.7283 24.166 17.7048 20.916 17.1189 18.2676C16.8064 16.8223 16.322 15.5801 15.658 14.6816C14.9861 13.791 14.158 13.2207 12.9626 13.041L11.7126 12.8457L12.5017 11.8613C13.283 10.8848 13.8064 9.50195 13.8064 7.94727C13.8064 4.88477 11.8689 2.57227 9.71265 2.57227C9.48608 2.57227 9.34546 2.56445 9.3064 2.56445ZM34.3767 3.18945C33.033 3.18945 31.9548 4.26523 31.9548 5.61133C31.9548 6.95742 33.033 8.0332 34.3767 8.0332C35.7205 8.0332 36.7986 6.95742 36.7986 5.61133C36.7986 4.26523 35.7205 3.18945 34.3767 3.18945ZM24.2986 4.9082V8.6582H16.2517V10.0645H24.2986V22.4082H20.0017V23.8145H24.2986V32.4082H16.2517V33.8145H24.2986V36.3145H30.6111C30.572 36.0879 30.5486 35.8535 30.5486 35.6113C30.5486 35.3691 30.572 35.1348 30.6111 34.9082H25.7048V23.8145H30.6111C30.572 23.5879 30.5486 23.3535 30.5486 23.1113C30.5486 22.8691 30.572 22.6348 30.6111 22.4082H25.7048V6.31445H30.6111C30.572 6.08633 30.5486 5.85117 30.5486 5.61133C30.5486 5.37148 30.572 5.13633 30.6111 4.9082H24.2986ZM34.3767 20.6895C33.033 20.6895 31.9548 21.7676 31.9548 23.1113C31.9548 24.4551 33.033 25.5332 34.3767 25.5332C35.7205 25.5332 36.7986 24.4551 36.7986 23.1113C36.7986 21.7676 35.7205 20.6895 34.3767 20.6895ZM34.3767 33.1895C33.033 33.1895 31.9548 34.2676 31.9548 35.6113C31.9548 36.9551 33.033 38.0332 34.3767 38.0332C35.7205 38.0332 36.7986 36.9551 36.7986 35.6113C36.7986 34.2676 35.7205 33.1895 34.3767 33.1895Z" fill="black"/>
</g>
</svg>
