<svg width="40" height="40" viewBox="0 0 40 40" fill="none" xmlns="http://www.w3.org/2000/svg">
<g id="hugeicons:software-license">
<g id="Group">
<path id="Vector" d="M4.16846 15.0001H35.8351M11.6685 10.0001H11.6835M18.3351 10.0001H18.3501M4.16846 20.0001C4.16846 12.5367 4.16846 8.80341 6.48679 6.48508C8.80512 4.16675 12.5368 4.16675 20.0018 4.16675C27.4651 4.16675 31.1985 4.16675 33.5168 6.48508C35.8351 8.80341 35.8351 12.5351 35.8351 20.0001C35.8351 27.4634 35.8351 31.1967 33.5168 33.5151C31.1985 35.8334 27.4668 35.8334 20.0018 35.8334C12.5385 35.8334 8.80512 35.8334 6.48679 33.5151C4.16846 31.1967 4.16846 27.4651 4.16846 20.0001Z" stroke="black" stroke-width="2.5" stroke-linecap="round" stroke-linejoin="round"/>
<path id="Vector_2" d="M13.3351 21.6667L15.3801 23.4284C16.2384 24.1701 16.6684 24.5401 16.6684 25.0001C16.6684 25.4601 16.2384 25.8301 15.3801 26.5717L13.3351 28.3334M20.0017 28.3334H26.6684" stroke="black" stroke-width="2.5" stroke-linecap="round" stroke-linejoin="round"/>
</g>
</g>
</svg>
