<svg width="35" height="36" viewBox="0 0 35 36" fill="none" xmlns="http://www.w3.org/2000/svg">
<g id="arcticons:pingtools">
<path id="Vector" d="M28.0747 4.50439H6.92887C6.15533 4.50439 5.41346 4.81169 4.86648 5.35867C4.3195 5.90565 4.01221 6.64751 4.01221 7.42106V28.5669C4.01221 29.3404 4.3195 30.0823 4.86648 30.6293C5.41346 31.1763 6.15533 31.4836 6.92887 31.4836H28.0747C28.8483 31.4836 29.5901 31.1763 30.1371 30.6293C30.6841 30.0823 30.9914 29.3404 30.9914 28.5669V7.42106C30.9914 6.64751 30.6841 5.90565 30.1371 5.35867C29.5901 4.81169 28.8483 4.50439 28.0747 4.50439Z" stroke="#F27507" stroke-width="2.5" stroke-linecap="round" stroke-linejoin="round"/>
<path id="Vector_2" d="M28.2023 7.11401H6.80131C6.29228 7.11401 5.87964 7.52666 5.87964 8.03568V12.4187C5.87964 12.9277 6.29228 13.3404 6.80131 13.3404H28.2023C28.7114 13.3404 29.124 12.9277 29.124 12.4187V8.03568C29.124 7.52666 28.7114 7.11401 28.2023 7.11401Z" stroke="#F27507" stroke-width="0.5" stroke-linecap="round" stroke-linejoin="round"/>
<path id="Vector_3" d="M26.0667 10.7737C26.3687 10.7737 26.6135 10.5288 26.6135 10.2268C26.6135 9.92478 26.3687 9.67993 26.0667 9.67993C25.7646 9.67993 25.5198 9.92478 25.5198 10.2268C25.5198 10.5288 25.7646 10.7737 26.0667 10.7737Z" fill="#F27507"/>
<path id="Vector_4" d="M23.4022 10.7737C23.7043 10.7737 23.9491 10.5288 23.9491 10.2268C23.9491 9.92478 23.7043 9.67993 23.4022 9.67993C23.1002 9.67993 22.8553 9.92478 22.8553 10.2268C22.8553 10.5288 23.1002 10.7737 23.4022 10.7737Z" fill="#F27507"/>
<path id="Vector_5" d="M20.7379 10.7737C21.0399 10.7737 21.2848 10.5288 21.2848 10.2268C21.2848 9.92478 21.0399 9.67993 20.7379 9.67993C20.4359 9.67993 20.191 9.92478 20.191 10.2268C20.191 10.5288 20.4359 10.7737 20.7379 10.7737Z" fill="#F27507"/>
<path id="Vector_6" d="M10.0352 12.0496C11.042 12.0496 11.8581 11.2335 11.8581 10.2267C11.8581 9.21996 11.042 8.40381 10.0352 8.40381C9.02843 8.40381 8.21228 9.21996 8.21228 10.2267C8.21228 11.2335 9.02843 12.0496 10.0352 12.0496Z" stroke="#F27507" stroke-width="0.5" stroke-linecap="round" stroke-linejoin="round"/>
<path id="Vector_7" d="M28.2023 14.8811H6.80131C6.29228 14.8811 5.87964 15.2937 5.87964 15.8028V20.1858C5.87964 20.6948 6.29228 21.1075 6.80131 21.1075H28.2023C28.7114 21.1075 29.124 20.6948 29.124 20.1858V15.8028C29.124 15.2937 28.7114 14.8811 28.2023 14.8811Z" stroke="#F27507" stroke-width="0.5" stroke-linecap="round" stroke-linejoin="round"/>
<path id="Vector_8" d="M26.0667 18.54C26.3687 18.54 26.6135 18.2952 26.6135 17.9932C26.6135 17.6911 26.3687 17.4463 26.0667 17.4463C25.7646 17.4463 25.5198 17.6911 25.5198 17.9932C25.5198 18.2952 25.7646 18.54 26.0667 18.54Z" fill="#F27507"/>
<path id="Vector_9" d="M23.4022 18.54C23.7043 18.54 23.9491 18.2952 23.9491 17.9932C23.9491 17.6911 23.7043 17.4463 23.4022 17.4463C23.1002 17.4463 22.8553 17.6911 22.8553 17.9932C22.8553 18.2952 23.1002 18.54 23.4022 18.54Z" fill="#F27507"/>
<path id="Vector_10" d="M20.7379 18.54C21.0399 18.54 21.2848 18.2952 21.2848 17.9932C21.2848 17.6911 21.0399 17.4463 20.7379 17.4463C20.4359 17.4463 20.191 17.6911 20.191 17.9932C20.191 18.2952 20.4359 18.54 20.7379 18.54Z" fill="#F27507"/>
<path id="Vector_11" d="M10.0352 19.816C11.042 19.816 11.8581 18.9999 11.8581 17.9931C11.8581 16.9863 11.042 16.1702 10.0352 16.1702C9.02843 16.1702 8.21228 16.9863 8.21228 17.9931C8.21228 18.9999 9.02843 19.816 10.0352 19.816Z" stroke="#F27507" stroke-width="0.5" stroke-linecap="round" stroke-linejoin="round"/>
<path id="Vector_12" d="M28.2023 22.6475H6.80131C6.29228 22.6475 5.87964 23.0601 5.87964 23.5691V27.9521C5.87964 28.4612 6.29228 28.8738 6.80131 28.8738H28.2023C28.7114 28.8738 29.124 28.4612 29.124 27.9521V23.5691C29.124 23.0601 28.7114 22.6475 28.2023 22.6475Z" stroke="#F27507" stroke-width="0.5" stroke-linecap="round" stroke-linejoin="round"/>
<path id="Vector_13" d="M26.0667 26.3071C26.3687 26.3071 26.6135 26.0623 26.6135 25.7603C26.6135 25.4582 26.3687 25.2134 26.0667 25.2134C25.7646 25.2134 25.5198 25.4582 25.5198 25.7603C25.5198 26.0623 25.7646 26.3071 26.0667 26.3071Z" fill="#F27507"/>
<path id="Vector_14" d="M23.4022 26.3071C23.7043 26.3071 23.9491 26.0623 23.9491 25.7603C23.9491 25.4582 23.7043 25.2134 23.4022 25.2134C23.1002 25.2134 22.8553 25.4582 22.8553 25.7603C22.8553 26.0623 23.1002 26.3071 23.4022 26.3071Z" fill="#F27507"/>
<path id="Vector_15" d="M20.7379 26.3071C21.0399 26.3071 21.2848 26.0623 21.2848 25.7603C21.2848 25.4582 21.0399 25.2134 20.7379 25.2134C20.4359 25.2134 20.191 25.4582 20.191 25.7603C20.191 26.0623 20.4359 26.3071 20.7379 26.3071Z" fill="#F27507"/>
<path id="Vector_16" d="M10.0352 27.5831C11.042 27.5831 11.8581 26.7669 11.8581 25.7602C11.8581 24.7534 11.042 23.9373 10.0352 23.9373C9.02843 23.9373 8.21228 24.7534 8.21228 25.7602C8.21228 26.7669 9.02843 27.5831 10.0352 27.5831Z" stroke="#F27507" stroke-width="0.5" stroke-linecap="round" stroke-linejoin="round"/>
</g>
</svg>
